<svg xmlns="http://www.w3.org/2000/svg" width="500" height="500" viewBox="0 0 500.00001 500.00001"><path d="M205.787 493.568c-157.9-26.504-246.857-201.682-177.6-349.744 85.36-182.49 351.91-185.57 441.307-5.098 91.224 184.158-60.92 388.88-263.707 354.842zm99.038-34.836c31.25-8.674 79.184-34.717 83.206-45.21 1.277-3.325-294.462-301.13-299.04-301.13-4.517 0-20.218 22.372-30.804 43.89-80.533 163.703 72.113 350.89 246.64 302.45zM104.843 349.065c-12.468-6.225-12.476-6.275-12.476-86.468 0-79.512.01-79.59 11.773-86.543 22.78-13.467 90.532 44.178 82.108 69.86-18.68 56.95 48.65 115.263 92.877 80.437 1.935-1.523 5.993 1.415 16.55 11.98 13.537 13.55-165.074 23.595-190.832 10.735zm317.906 29.113c106.74-135.61 2.872-340.836-172.5-340.836-53.517 0-128.95 27.877-137.784 50.92-1.275 3.326 294.464 301.132 299.042 301.132 1.326 0 6.385-5.047 11.24-11.216zm-69.57-66.325c-38.348-38.527-38.348-38.527-40.446-50.23-5.747-32.08-27.69-53.273-60.536-58.47-8.16-1.29-46.78-34.694-46.78-40.46 0-19.49 64.18-15.8 93.36 5.367 5.686 4.124 8.767 4.804 21.77 4.804 19.174 0 20.825-.705 23.314-9.954 2.97-11.043 19.437-10.66 19.437.45 0 6.112 5.592 9.504 15.666 9.504 28.496 0 29.164 2.062 29.164 90.088 0 77.795.06 77.264-9.657 84.927-5.184 4.088-6.06 3.39-45.294-36.027zm-85.502-132.226c12.81-13.055 2.866-26.27-19.77-26.27-20.12 0-29.718 7.925-24.914 20.57 4.056 10.677 35.824 14.73 44.684 5.7z" fill="#cbcbcb"/></svg>